<svg width="256" height="256" viewBox="0 0 256 256" fill="none" xmlns="http://www.w3.org/2000/svg">
<rect width="256" height="256" rx="48" fill="#20A39E"/>
<path d="M155.92 54.0371C158.925 33.1671 175.258 31.5478 183.393 32.0786C185.984 32.2479 188 34.4099 188 37.0263V75.5105C188 83.9106 181.243 90.7202 172.907 90.7202H154.145C154.145 99.1203 147.388 105.93 139.052 105.93L45 106V100.058C45 92.4639 49.8456 86.0147 56.5892 83.6672C56.5876 83.5724 56.5821 83.4786 56.5821 83.3835C56.5821 73.8064 64.2863 66.0424 73.7899 66.0424C75.639 66.042 77.4761 66.3424 79.2303 66.932C79.1378 66.2036 79.0846 65.4623 79.0846 64.7083C79.0846 55.1311 86.7889 47.3672 96.2924 47.3672C100.8 47.3672 104.9 49.1155 107.968 51.9736C110.56 50.4816 113.494 49.6985 116.479 49.7018C123.744 49.7018 129.954 54.2425 132.478 60.6599C140.259 47.9893 155.92 54.0371 155.92 54.0371Z" fill="url(#paint0_linear_3536_13135)"/>
<path d="M87.0938 124C86.2116 127.428 85.7686 131.05 85.7686 134.866C85.7686 142.296 87.0215 148.686 89.5273 154.035C92.0332 159.385 95.4978 163.843 99.9199 167.409C104.342 170.975 109.427 173.65 115.176 175.433C121.072 177.067 127.263 177.885 133.749 177.885C139.645 177.885 145.025 177.216 149.89 175.879C154.901 174.542 159.176 172.684 162.714 170.307C166.399 167.929 169.273 165.106 171.337 161.837C172.525 159.954 173.37 157.947 173.874 155.818H130.605C129.777 155.818 129.105 155.147 129.105 154.318V125.667C129.105 124.839 129.777 124.167 130.605 124.167H213.505C214.289 124.167 214.941 124.771 214.992 125.554C215.107 127.288 215.221 129.426 215.336 131.969C215.483 135.089 215.631 138.136 215.778 141.107C215.926 143.93 216 145.788 216 146.68C216 157.527 213.863 167.26 209.588 175.879C205.461 184.349 199.491 191.556 191.679 197.5C184.014 203.444 174.874 208.05 164.261 211.319C153.648 214.44 141.782 216 128.663 216C115.544 216 103.457 214.217 92.4014 210.65C81.4938 206.935 72.1335 201.661 64.3213 194.825C56.509 187.841 50.4651 179.297 46.1904 169.192C42.0632 159.088 40 147.645 40 134.866C40 131.147 40.2324 127.525 40.6914 124H87.0938Z" fill="white"/>
<path d="M89.0879 113C90.2575 113 90.9864 114.286 90.4473 115.324C90.045 116.098 89.6645 116.891 89.3066 117.703C88.9645 118.458 88.648 119.224 88.3555 120H41.3164C41.6154 118.373 41.9644 116.767 42.3652 115.184C42.6937 113.886 43.8771 113 45.2158 113H89.0879Z" fill="white"/>
<defs>
<linearGradient id="paint0_linear_3536_13135" x1="198.142" y1="47.1902" x2="65.0226" y2="106.052" gradientUnits="userSpaceOnUse">
<stop stop-color="white" stop-opacity="0.3"/>
<stop offset="1" stop-color="white"/>
</linearGradient>
</defs>
</svg>
