<svg width="2518" height="1800" viewBox="0 0 2518 1800" fill="none" xmlns="http://www.w3.org/2000/svg">
<g name="1"><path d="M503 145L419 138.5V174.5L461.5 180L457.5 236.5L495.5 240.5L503 145Z" fill="#46E488" stroke="black"/></g>
<g name="2"><path d="M637 169L519.5 163.5V246.5L633.5 250L637 169Z" fill="#46E488" stroke="black"/></g>
<g name="3"><path d="M593.5 278H477V370.5H593.5V278Z" fill="#46E488" stroke="black"/></g>
<g name="4"><path d="M1782 43L1757.5 1H1810L1823.5 21L1782 43Z" fill="#46E488" stroke="black"/></g>
<g name="5"><path d="M335 1754.5V1798.5H444.5V1757L335 1754.5Z" fill="#46E488" stroke="black"/></g>
<g name="6"><path d="M709 252H602V354L707 356.5L709 252Z" fill="#46E488" stroke="black"/></g>
<g name="7"><path d="M934.5 250.5L767.5 248V385H914V326H934.5V250.5Z" fill="#46E488" stroke="black"/></g>
<g name="8"><path d="M1064.5 251.5L994 246.5L987.5 358.5L1056 363.5L1064.5 251.5Z" fill="#46E488" stroke="black"/></g>
<g name="9"><path d="M1173.5 256L1082.5 248L1075 364L1165 370.5L1173.5 256Z" fill="#46E488" stroke="black"/></g>
<g name="10"><path d="M1267 261.5L1184 255.5L1173 408.5L1259 414.5L1267 261.5Z" fill="#46E488" stroke="black"/></g>
<g name="11"><path d="M1277.5 135.5L1273 195L1309.5 197.5L1314 138.5L1277.5 135.5Z" fill="#46E488" stroke="black"/></g>
<g name="12"><path d="M1379 252L1288 245.5L1284.5 331.5L1367.5 341V409H1410L1424 218.5L1379 215V252Z" fill="#46E488" stroke="black"/></g>
<g name="13"><path d="M1662 255L1448 242L1443 354L1656.5 366L1662 255Z" fill="#46E488" stroke="black"/></g>
<g name="14"><path d="M1509.5 367L1447.5 364L1443 446.5L1505 450.5L1509.5 367Z" fill="#46E488" stroke="black"/></g>
<g name="15"><path d="M1846 257L1729 234.5L1695.5 398.5L1819 422.5L1846 257Z" fill="#46E488" stroke="black"/></g>
<g name="16"><path d="M1820.5 414L1855 216L1912.5 227L1906.5 261L1953.5 272.5L1923 434L1820.5 414Z" fill="#46E488" stroke="black"/></g>
<g name="17"><path d="M2147 285.5L2035 276.5L2029 354H2044.5V389.5L2140 396L2147 285.5Z" fill="#46E488" stroke="black"/></g>
<g name="18"><path d="M2131.5 173H2105L2098 260L2195 267L2201 152.5L2131.5 149V173Z" fill="#46E488" stroke="black"/></g>
<g name="19"><path d="M2368.5 152L2224 136L2206 302.5L2351 316L2368.5 152Z" fill="#46E488" stroke="black"/></g>
<g name="20"><path d="M2205 394L2212.5 304.5L2360 318L2349.5 410L2205 394Z" fill="#46E488" stroke="black"/></g>
<g name="21"><path d="M2382 424.5L2347 421L2342.5 471L2378.5 474L2382 424.5Z" fill="#46E488" stroke="black"/></g>
<g name="22"><path d="M2362 309.5L2350.5 421L2433.5 428L2430.5 468L2495.5 475.5L2509 325.5L2362 309.5Z" fill="#46E488" stroke="black"/></g>
<g name="23"><path d="M2431 638.5L2327 632L2323 718L2427 723.5L2431 638.5Z" fill="#46E488" stroke="black"/></g>
<g name="24"><path d="M2262 698.5L2212.5 695L2209 725.5L2262 730.5V698.5Z" fill="#46E488" stroke="black"/></g>
<g name="25"><path d="M2232.5 728L2185 725L2181.5 761L2230.5 765L2232.5 728Z" fill="#46E488" stroke="black"/></g>
<g name="26"><path d="M1764.5 431.5L1667 420L1653.5 545L1751 554L1764.5 431.5Z" fill="#46E488" stroke="black"/></g>
<g name="27"><path d="M125 265.5H66.5L62.5 374L156.5 376.5L164 215.5H125V265.5Z" fill="#46E488" stroke="black"/></g>
<g name="28"><path d="M155 383L55.5 380.5L53 448L84.5 450V468L151.5 471L155 383Z" fill="#46E488" stroke="black"/></g>
<g name="29"><path d="M108.5 502L49 495.5L38.5 583.5L98 590L108.5 502Z" fill="#46E488" stroke="black"/></g>
<g name="30"><path d="M146 565.5L101.5 560.5L96 613L36.5 606.5L25 705.5L128 717L146 565.5Z" fill="#46E488" stroke="black"/></g>
<g name="31"><path d="M127.5 717.5L19.5 705L15.5 746L124.5 756.5L127.5 717.5Z" fill="#46E488" stroke="black"/></g>
<g name="32"><path d="M115 812.5L43.5 804.5L30.5 917L103 925L115 812.5Z" fill="#46E488" stroke="black"/></g>
<g name="33"><path d="M85.5 1059L0.5 1048.5V934.5L99.5 947.5L85.5 1059Z" fill="#46E488" stroke="black"/></g>
<g name="34"><path d="M57 1229L0.5 1221.5V1322L46 1326.5L57 1229Z" fill="#46E488" stroke="black"/></g>
<g name="35"><path d="M217 1510L124 1504L116.5 1609.5L212 1615.5L217 1510Z" fill="#46E488" stroke="black"/></g>
<g name="36"><path d="M356.5 1512.5L247 1506L243.5 1597L351 1603.5L356.5 1512.5Z" fill="#46E488" stroke="black"/></g>
<g name="37"><path d="M479 1511.5L357 1504.5L352 1616L474 1623L479 1511.5Z" fill="#46E488" stroke="black"/></g>
<g name="38"><path d="M628 1510.5L480.5 1502.5L476 1623.5L621.5 1631L628 1510.5Z" fill="#46E488" stroke="black"/></g>
<g name="39"><path d="M125.5 1771.5V1798.5H231V1774L125.5 1771.5Z" fill="#46E488" stroke="black"/></g>
<g name="40"><path d="M249 1725L248 1798.5H327.5V1726L249 1725Z" fill="#46E488" stroke="black"/></g>
<g name="41"><path d="M492.5 1756.5V1799H615.5V1761L492.5 1756.5Z" fill="#46E488" stroke="black"/></g>
<g name="42"><path d="M617 1762.5V1798.5H763V1766L617 1762.5Z" fill="#46E488" stroke="black"/></g>
<g name="43"><path d="M764.5 1765.5V1798.5H876.5V1765.5H764.5Z" fill="#46E488" stroke="black"/></g>
<g name="44"><path d="M877 1752V1798.5H979.5V1754.5L877 1752Z" fill="#46E488" stroke="black"/></g>
<g name="45"><path d="M265 330L277 228.5L401 244L387 344.5L265 330Z" fill="#46E488" stroke="black"/></g>
<g name="46"><path d="M362.5 373L260.5 362L249 470L351 482.5L362.5 373Z" fill="#46E488" stroke="black"/></g>
<g name="47"><path d="M368 508.5L255.5 495L244.5 593.5L355 608L368 508.5Z" fill="#46E488" stroke="black"/></g>
<g name="48"><path d="M336.5 638L246.5 627.5L238 718L327 727L336.5 638Z" fill="#46E488" stroke="black"/></g>
<g name="49"><path d="M570 517L476 506.5L463 627.5L558 637.5L570 517Z" fill="#46E488" stroke="black"/></g>
<g name="50"><path d="M651.5 668.5L545 646.5L524.5 737.5L633 761.5L651.5 668.5Z" fill="#46E488" stroke="black"/></g>
<g name="51"><path d="M763 694L666.5 670.5L645 758.5L740.5 783L763 694Z" fill="#46E488" stroke="black"/></g>
<g name="52"><path d="M999.5 642L871.5 628.5L859.5 740L988 755L999.5 642Z" fill="#46E488" stroke="black"/></g>
<g name="53"><path d="M936 755.5L858.5 746.5L847 827L940 837L942 811H928.5L936 755.5Z" fill="#46E488" stroke="black"/></g>
<g name="54"><path d="M1210.5 748.5L1107.5 735L1101 776L1205.5 788.5L1210.5 748.5Z" fill="#46E488" stroke="black"/></g>
<g name="55"><path d="M1170 826.5L1074 815.5L1068 888.5L1091 890.5V906.5L1160 911.5L1170 826.5Z" fill="#46E488" stroke="black"/></g>
<g name="56"><path d="M1017.5 900L981 895.5L975.5 941.5L1012 946.5L1017.5 900Z" fill="#46E488" stroke="black"/></g>
<g name="57"><path d="M877 879.5L791.5 876.5L787 1011L870 1014.5L877 879.5Z" fill="#46E488" stroke="black"/></g>
<g name="58"><path d="M671.5 893L546.5 890L542.5 1002L665.5 1004L671.5 893Z" fill="#46E488" stroke="black"/></g>
<g name="59"><path d="M534.5 908L440.5 903.5L439 974L530.5 976L534.5 908Z" fill="#46E488" stroke="black"/></g>
<g name="60"><path d="M1030 498.5L966 486L953.5 554L1016.5 565L1030 498.5Z" fill="#46E488" stroke="black"/></g>
<g name="61"><path d="M1360 596.5L1285 588L1281.5 627.5L1356 635L1360 596.5Z" fill="#46E488" stroke="black"/></g>
<g name="62"><path d="M1395.5 600L1360 596.5L1356.5 635L1394 638.5L1395.5 600Z" fill="#46E488" stroke="black"/></g>
<g name="63"><path d="M1432.5 569L1400 564.5L1395 639.5L1523.5 654L1528 606.5L1432.5 594.5V569Z" fill="#46E488" stroke="black"/></g>
<g name="64"><path d="M1586.5 621.5L1527.5 615.5L1522.5 664.5L1581.5 669L1586.5 621.5Z" fill="#46E488" stroke="black"/></g>
<g name="65"><path d="M821 1524.5L711.5 1517.5L704.5 1646.5L813.5 1652L821 1524.5Z" fill="#46E488" stroke="black"/></g>
<g name="66"><path d="M916 1554L859 1551.5L855.5 1634H916V1554Z" fill="#46E488" stroke="black"/></g>
<g name="67"><path d="M969.5 1531H916V1624H965L969.5 1531Z" fill="#46E488" stroke="black"/></g>
<g name="68"><path d="M1039.5 1531C1018 1529.67 974.5 1527 972.5 1527L965 1647L1047 1652.5L1051.5 1554.5H1039.5V1531Z" fill="#46E488" stroke="black"/></g>
<g name="69"><path d="M1232 1560.5L1103.5 1554L1101 1659.5L1228 1665.5L1232 1560.5Z" fill="#46E488" stroke="black"/></g>
<g name="70"><path d="M1381.5 1563L1300.5 1560.5L1297.5 1668.5H1381.5V1563Z" fill="#46E488" stroke="black"/></g>
<g name="71"><path d="M1495 1559H1420L1417.5 1665.5L1504 1668L1507 1577.5H1495V1559Z" fill="#46E488" stroke="black"/></g>
<g name="72"><path d="M1661.5 1552.5L1541.5 1543.5L1532 1679L1651.5 1688L1661.5 1552.5Z" fill="#46E488" stroke="black"/></g>
<g name="73"><path d="M1774 1537H1706.5L1703 1688H1796.5V1589.5H1774V1537Z" fill="#46E488" stroke="black"/></g>
<g name="74"><path d="M1987.5 1568.5L1857.5 1562.5L1851 1676L1982 1685L1987.5 1568.5Z" fill="#46E488" stroke="black"/></g>
<g name="75"><path d="M2107.5 1558L2005.5 1552L1998 1669.5L2172.5 1680L2177.5 1579L2107.5 1574.5V1558Z" fill="#46E488" stroke="black"/></g>
<g name="76"><path d="M2315.5 1610L2259 1602.5L2247 1680.5L2370.5 1700L2387.5 1578.5L2321.5 1568.5L2315.5 1610Z" fill="#46E488" stroke="black"/></g>
<g name="77"><path d="M996.5 1754V1798.5H1099.5V1756.5L996.5 1754Z" fill="#46E488" stroke="black"/></g>
<g name="78"><path d="M1194 1757H1110.5V1798.5H1194V1757Z" fill="#46E488" stroke="black"/></g>
<g name="79"><path d="M2455 961L2373 950.5L2358 1075.5L2440 1086L2455 961Z" fill="#46E488" stroke="black"/></g>
<g name="80"><path d="M2307.5 959.5L2198.5 946.5L2189 1053L2294.5 1063.5L2307.5 959.5Z" fill="#46E488" stroke="black"/></g>
<g name="81"><path d="M2345.5 1097L2183.5 1078L2172 1184L2221 1188.5L2225 1154L2335.5 1167.5L2345.5 1097Z" fill="#46E488" stroke="black"/></g>
<g name="82"><path d="M2402.5 1175.5L2318.5 1166.5L2310 1234.5L2396 1246L2402.5 1175.5Z" fill="#46E488" stroke="black"/></g>
<g name="83"><path d="M2470 1486L2447 1469.5L2410.5 1517L2436 1533.5L2470 1486Z" fill="#46E488" stroke="black"/></g>
<g name="84"><path d="M2235.5 1417L2203.5 1413.5L2198.5 1460L2230.5 1463.5L2235.5 1417Z" fill="#46E488" stroke="black"/></g>
<g name="85"><path d="M2481.5 1310.5L2517 1329.5V1281L2501 1272L2481.5 1310.5Z" fill="#46E488" stroke="black"/></g>
<g name="86"><path d="M2233.5 1279L2083.5 1258.5L2067.5 1376L2218 1396.5L2233.5 1279Z" fill="#46E488" stroke="black"/></g>
<g name="87"><path d="M2105 1161.5L2012.5 1151.5L2008 1190.5L2102 1200L2105 1161.5Z" fill="#46E488" stroke="black"/></g>
<g name="88"><path d="M2164 1069L2045 1065.5L2042.5 1135.5L2164 1138V1069Z" fill="#46E488" stroke="black"/></g>
<g name="89"><path d="M2187.5 996H2128.5V1068.5H2187.5V996Z" fill="#46E488" stroke="black"/></g>
<g name="90"><path d="M341 827L198 813.5L190 899L332.5 912.5L341 827Z" fill="#46E488" stroke="black"/></g>
<g name="91"><path d="M290 920L188 911.5L174.5 1063.5L297 1075L300 1037L280.5 1034L290 920Z" fill="#46E488" stroke="black"/></g>
<g name="92"><path d="M438.5 1032.5L377.5 1027.5L374.5 1056.5L436.5 1062L438.5 1032.5Z" fill="#46E488" stroke="black"/></g>
<g name="93"><path d="M341 1089.5L186 1075L174.5 1184L330 1199L341 1089.5Z" fill="#46E488" stroke="black"/></g>
<g name="94"><path d="M156.5 1302.5H129.5L127.5 1342L330.5 1352.5L336.5 1243L160.5 1233.5L156.5 1302.5Z" fill="#46E488" stroke="black"/></g>
<g name="95"><path d="M578.5 1328L500 1319.5V1351L575 1359.5L578.5 1328Z" fill="#46E488" stroke="black"/></g>
<g name="96"><path d="M595.5 1322.5L547.5 1316.5L556.5 1226.5L604.5 1231.5L595.5 1322.5Z" fill="#46E488" stroke="black"/></g>
<g name="97"><path d="M727 1330L657 1321.5L652.5 1363L723.5 1370.5L727 1330Z" fill="#46E488" stroke="black"/></g>
<g name="98"><path d="M940 1320.5L870.5 1308.5L862.5 1355L933 1367L940 1320.5Z" fill="#46E488" stroke="black"/></g>
<g name="99"><path d="M2040.5 972H2026L2016.5 1047.5L2105 1058L2120 942.5L2044.5 933L2040.5 972Z" fill="#46E488" stroke="black"/></g>
<g name="100"><path d="M2031 882L1925.5 870.5L1915 975.5L2017.5 987L2031 882Z" fill="#46E488" stroke="black"/></g>
<g name="101"><path d="M1929.5 977.5L1856.5 968.5L1837.5 1118L1912 1127.5L1929.5 977.5Z" fill="#46E488" stroke="black"/></g>
<g name="102"><path d="M1701 994L1587.5 986L1581.5 1095L1820 1114.5L1826.5 1017L1701 1007.5V994Z" fill="#46E488" stroke="black"/></g>
<g name="103"><path d="M1590.5 974.5L1499 969L1489 1087.5L1581 1095L1590.5 974.5Z" fill="#46E488" stroke="black"/></g>
<g name="104"><path d="M1503.5 915.5L1400.5 907.5L1390.5 1045.5L1491 1053L1503.5 915.5Z" fill="#46E488" stroke="black"/></g>
<g name="105"><path d="M1487.5 854.5L1439 856V907.5H1487.5V854.5Z" fill="#46E488" stroke="black"/></g>
<g name="106"><path d="M1180.5 952L1093 942L1083 1048L1167 1057L1180.5 952Z" fill="#46E488" stroke="black"/></g>
<g name="107"><path d="M1172.5 1037L1184.5 934L1304.5 946.5L1293.5 1051L1172.5 1037Z" fill="#46E488" stroke="black"/></g>
<g name="108"><path d="M689 1178L606 1164L629 1044L753.5 1066L737 1167L693.5 1160L689 1178Z" fill="#46E488" stroke="black"/></g>
<g name="109"><path d="M897.5 1206.5L771 1186L787.5 1081.5L915.5 1103.5L897.5 1206.5Z" fill="#46E488" stroke="black"/></g>
<g name="110"><path d="M1036 1129L924 1108.5L903 1226.5L1014.5 1246.5L1036 1129Z" fill="#46E488" stroke="black"/></g>
<g name="111"><path d="M1137 1136L1088.5 1127.5L1071 1214.5L1119 1224L1137 1136Z" fill="#46E488" stroke="black"/></g>
<g name="112"><path d="M1135 1145.5L1230 1165.5L1204.5 1292.5L1107.5 1274L1135 1145.5Z" fill="#46E488" stroke="black"/></g>
<g name="113"><path d="M1333.5 1173.5L1242 1159.5L1217 1306L1310.5 1320.5L1333.5 1173.5Z" fill="#46E488" stroke="black"/></g>
<g name="114"><path d="M989.5 1494.5L951 1491L962 1372.5L1049.5 1380.5L1045 1416.5L996 1412.5L989.5 1494.5Z" fill="#46E488" stroke="black"/></g>
<g name="115"><path d="M1590 1192.5L1481.5 1179.5L1467.5 1327.5L1574.5 1338.5L1590 1192.5Z" fill="#46E488" stroke="black"/></g>
<g name="116"><path d="M1680 1192H1597V1271.5H1680V1192Z" fill="#46E488" stroke="black"/></g>
<g name="117"><path d="M1737 1174.5H1684.5L1681 1261H1737V1174.5Z" fill="#46E488" stroke="black"/></g>
<g name="118"><path d="M1845 1198.5H1747.5V1289.5H1845V1198.5Z" fill="#46E488" stroke="black"/></g>
<g name="119"><path d="M1980.5 1217L1903 1210L1889 1315.5L1969.5 1324L1980.5 1217Z" fill="#46E488" stroke="black"/></g>
<g name="120"><path d="M1910 1401L1907 1469L2011.5 1476L2015.5 1439.5L1975 1435.5V1405L1910 1401Z" fill="#46E488" stroke="black"/></g>
<g name="121"><path d="M1635.5 1369.5L1523.5 1358.5L1518.5 1399.5L1631 1410L1635.5 1369.5Z" fill="#46E488" stroke="black"/></g>
<g name="122"><path d="M34 208.5L0.5 207V287.5H31.5L34 208.5Z" fill="#46E488" stroke="black"/></g>
<g name="123"><path d="M71.5 47L67.5 0.5H150.5V40.5L71.5 47Z" fill="#46E488" stroke="black"/></g>
<g name="124"><path d="M455 37V0.5H568V34.5L455 37Z" fill="#46E488" stroke="black"/></g>
<g name="125"><path d="M596 52.5L593.5 0.5H749.5L752 44L596 52.5Z" fill="#46E488" stroke="black"/></g>
<g name="126"><path d="M762.5 0.5L765.5 62.5L861.5 58L858.5 0.5" stroke="black"/></g>
<g name="127"><path d="M1273 36.5V0.5H1386.5V32.5L1273 36.5Z" fill="#46E488" stroke="black"/></g>
<g name="128"><path d="M1386.5 32V0.5H1507V28.5L1386.5 32Z" fill="#46E488" stroke="black"/></g>
</svg>